<svg xmlns="http://www.w3.org/2000/svg" viewBox="0 0 64 64">
  <defs>
    <linearGradient id="bg" x1="8" y1="8" x2="56" y2="56" gradientUnits="userSpaceOnUse">
      <stop offset="0" stop-color="#2563eb"/>
      <stop offset="1" stop-color="#06b6d4"/>
    </linearGradient>
  </defs>
  <rect width="64" height="64" rx="16" fill="#0f172a"/>
  <rect x="6" y="6" width="52" height="52" rx="12" fill="url(#bg)"/>
  <path d="M18 41V24h8.5c5.2 0 8.5 2.9 8.5 8.2S31.7 41 26.5 41H18Zm6.5-4.8c3 0 4.8-1.3 4.8-4s-1.8-4-4.8-4h-.9v8h.9Z" fill="#f8fafc"/>
  <path d="M37 41V24h9.5c4.5 0 7.3 2.2 7.3 5.8 0 2.1-1 3.7-2.9 4.7 2.4.8 3.7 2.6 3.7 5.2 0 4-3.1 6.3-8.2 6.3H37Zm6.1-10.4h2.4c1.7 0 2.8-.8 2.8-2.1s-1-2-2.8-2h-2.4v4.1Zm0 6h2.9c1.9 0 3-.8 3-2.3s-1.1-2.3-3-2.3h-2.9v4.6Z" fill="#f8fafc"/>
</svg>
